<?xml version="1.0" encoding="UTF-8"?>
<svg id="katman_2" xmlns="http://www.w3.org/2000/svg" viewBox="0 0 402 402">
  <defs>
    <style>
      .cls-1 {
        fill: #f70;
      }

      .cls-2 {
        fill: #ebebeb;
      }

      .cls-3 {
        fill: #af2825;
      }

      .cls-4 {
        fill: #533292;
      }

      .cls-5, .cls-6 {
        fill: #fff;
      }

      .cls-6 {
        opacity: 0;
      }

      .cls-7 {
        fill: #f8a873;
      }
    </style>
  </defs>
  <g id="katman_1">
    <rect class="cls-6" width="402" height="402" rx="44.37" ry="44.37"/>
    <g>
      <circle id="DP_x5F_Color" class="cls-7" cx="201" cy="140.71" r="52.17"/>
      <circle id="Sw_x5F_Color" class="cls-4" cx="201" cy="140.71" r="52.17"/>
      <circle id="VP_x5F_Color" class="cls-3" cx="201" cy="140.71" r="52.17"/>
      <circle id="MainColor" class="cls-1" cx="201" cy="140.71" r="52.17"/>
      <circle class="cls-5" cx="200.88" cy="143.51" r="22.51"/>
      <path class="cls-2" d="M201,55.39c9.26,0,18.16,1.41,26.69,4.21,8.53,2.81,16.33,6.76,23.4,11.88,3.41-4.63,8.1-8.46,14.08-11.52,5.97-3.04,13.59-4.57,22.85-4.57v84.82c0,12.43-2.19,24.26-6.58,35.47-4.39,11.21-10.42,21.02-18.1,29.43-7.68,8.41-16.88,15.05-27.6,19.93-10.73,4.87-22.3,7.31-34.74,7.31s-23.52-2.32-34-6.95c-10.48-4.63-19.69-10.97-27.6-19.01-7.92-8.05-14.14-17.42-18.65-28.15-4.51-10.72-6.76-22.18-6.76-34.37s2.25-23.64,6.76-34.37c4.51-10.72,10.72-20.11,18.65-28.15,7.92-8.05,17.12-14.38,27.6-19.01,10.48-4.63,21.81-6.95,34-6.95ZM201,103.66c-5.36,0-10.36,1.1-14.99,3.28-4.63,2.18-8.65,5.1-12.06,8.74-3.42,3.64-6.1,7.88-8.05,12.73-1.95,4.86-2.92,9.95-2.92,15.29s.97,10.43,2.92,15.29c1.95,4.86,4.63,9.1,8.05,12.74,3.41,3.64,7.43,6.49,12.06,8.55,4.63,2.06,9.63,3.09,14.99,3.09,5.36,0,10.36-1.03,14.99-3.09,4.63-2.06,8.65-4.91,12.07-8.55,3.41-3.64,6.09-7.88,8.05-12.74,1.95-4.86,2.92-9.95,2.92-15.29s-.98-10.43-2.92-15.29c-1.96-4.85-4.63-9.09-8.05-12.73-3.41-3.64-7.44-6.55-12.07-8.74-4.63-2.18-9.63-3.28-14.99-3.28Z"/>
      <path class="cls-2" d="M282.32,346.61s.04-55.6-46.98-84.27c0,0-11.05-9.42-38.68-8.19,0,0-52.4,5.09-76.28-33.21,0,0-2.83,49.51,29.2,75.79,0,0,17.35,16.47,43.37,17.87,0,0,35.95,1.22,72.26,16.67,0,0,9.84,5.58,17.11,15.34Z"/>
    </g>
  </g>
</svg>